# xmcd CD database file
# Copyright (C) 1997 Ti Kan
#
# Track frame offsets:
#  150
#  33120
#  48050
#  63467
#  82630
#  99942
#  117262
#  148082
#  181545
#  203760
#  246957
#  275047
#
# Disc length: 3968 seconds
#
# Revision: 1
# Processed by: cddbd v1.4b41PL1 Copyright (c) Steve Scherf et al.
# Submitted via: CDWizzard Release:4.20
#
DISCID=950f7e0c
DTITLE=Eric Burdon And The Animals - The Essential Eric Burdon And The An
DTITLE=imals
DYEAR=1900
DGENRE=
TTITLE0=River Deep Mountain High
TTITLE1=San Franciscan Nights
TTITLE2=Anything
TTITLE3=Monterey
TTITLE4=White Houses
TTITLE5=Winds Of Change
TTITLE6=To Love Somebody
TTITLE7=Sky Pilot
TTITLE8=Ring Of Fire
TTITLE9=Coloured Rain
TTITLE10=Serenade To A Sweet Lady
TTITLE11=St. James Infirmary
EXTD=
EXTT0=
EXTT1=
EXTT2=
EXTT3=
EXTT4=
EXTT5=
EXTT6=
EXTT7=
EXTT8=
EXTT9=
EXTT10=
EXTT11=
PLAYORDER=
